<svg xmlns="http://www.w3.org/2000/svg" viewBox="0 0 208.64 43.61"><defs><style>.cls-1{fill:#bc175c;}.cls-2{fill:#fff;}</style></defs><title>Asset 1</title><g id="Layer_2" data-name="Layer 2"><g id="Layer_1-2" data-name="Layer 1"><path class="cls-1" d="M47.33,21.33a5.15,5.15,0,0,0-4.91,3.58l-9.59-2.58a8.48,8.48,0,0,0,.24-2,8.1,8.1,0,0,0-2.55-5.91c2.05-2,5.15-5.18,7-7.07A3.94,3.94,0,0,0,43.37,4a4,4,0,1,0-7.15,2.32c-2.41,2.53-5.3,5.5-7,7.15a8.16,8.16,0,0,0-6.75-.81L21,7.48a2.17,2.17,0,1,0-.94.18L21.53,13a8.16,8.16,0,0,0-4.13,4.27L8.62,14.35c0-.07,0-.14,0-.21A4.33,4.33,0,1,0,8.21,16l8.71,2.86a8.44,8.44,0,0,0-.15,1.53,8.12,8.12,0,0,0,1.71,5l-4.84,3a2.16,2.16,0,1,0,.44.85l5-3.12a8.12,8.12,0,0,0,5.8,2.43h0l.8,5.43a4.91,4.91,0,1,0,1.68-.13l-.81-5.47a8.18,8.18,0,0,0,5.64-4.43l9.92,2.68a5.15,5.15,0,1,0,5.15-5.26ZM27.44,23.48A3.48,3.48,0,1,1,30.91,20,3.47,3.47,0,0,1,27.44,23.48Z"/><path class="cls-2" d="M69.82,14.93a3.23,3.23,0,0,1,.39-.57,3.3,3.3,0,0,1,.61-.56,3.54,3.54,0,0,1,.82-.43,2.8,2.8,0,0,1,1-.18c.4,0,.77,0,1.1.05a7,7,0,0,1,.93.18,5.64,5.64,0,0,1,.85.35,6.92,6.92,0,0,1,.86.56,3.05,3.05,0,0,1,.3.26.49.49,0,0,1,.16.37.59.59,0,0,1,0,.23l-.67,1a.41.41,0,0,1-.31.19.27.27,0,0,1-.17-.06l-.19-.14a5.63,5.63,0,0,0-1.36-.69,4.34,4.34,0,0,0-1.41-.22,2.88,2.88,0,0,0-1.08.21,2.82,2.82,0,0,0-.92.62,3,3,0,0,0-.64,1,3.36,3.36,0,0,0-.24,1.31v8.82a.44.44,0,0,1-.5.5H68.15c-.35,0-.52-.16-.52-.5V13.91a.46.46,0,0,1,.15-.36.49.49,0,0,1,.35-.13H69.3a.54.54,0,0,1,.38.14.52.52,0,0,1,.14.35Z"/><path class="cls-2" d="M89.53,24.45a1.84,1.84,0,0,1,.22-.17A.46.46,0,0,1,90,24.2a.43.43,0,0,1,.33.21l.37.49.23.31.13.18a.51.51,0,0,1,.13.3.56.56,0,0,1-.1.27,1.68,1.68,0,0,1-.33.33,11.26,11.26,0,0,1-1,.69,7.47,7.47,0,0,1-1.1.54,7.7,7.7,0,0,1-1.21.35,7.29,7.29,0,0,1-1.35.12,7.34,7.34,0,0,1-3.7-1,7.82,7.82,0,0,1-1.51-1.17,7.43,7.43,0,0,1-1.18-1.5,7.1,7.1,0,0,1-.76-1.76,6.73,6.73,0,0,1-.28-2,7.53,7.53,0,0,1,.26-2,7.64,7.64,0,0,1,.72-1.77,7.41,7.41,0,0,1,1.13-1.49,7.12,7.12,0,0,1,1.5-1.17,7.26,7.26,0,0,1,1.79-.74,7.48,7.48,0,0,1,2-.27,7.34,7.34,0,0,1,1.68.19,8,8,0,0,1,1.6.56,7.27,7.27,0,0,1,1.44.91A6.72,6.72,0,0,1,92,16.08a6.58,6.58,0,0,1,1.07,2.21,10.24,10.24,0,0,1,.33,2.85c0,.35-.17.53-.5.53H81a5.13,5.13,0,0,0,.67,1.66,5.51,5.51,0,0,0,1.15,1.34,5.26,5.26,0,0,0,1.49.89,4.76,4.76,0,0,0,1.71.32,4.87,4.87,0,0,0,1.12-.12,4.63,4.63,0,0,0,.91-.31,4.35,4.35,0,0,0,.76-.45l.68-.53Zm-6.18-8.34a5.63,5.63,0,0,0-1.47,1.45A5,5,0,0,0,81,19.48H91.22a4.46,4.46,0,0,0-.58-1.7,4.79,4.79,0,0,0-1.14-1.31,5.44,5.44,0,0,0-3.34-1.14,6,6,0,0,0-1.45.19A5.44,5.44,0,0,0,83.35,16.11Z"/><path class="cls-2" d="M97.14,13.83c.14.38.32.86.55,1.43s.47,1.21.73,1.88.54,1.37.82,2.08l.81,2,.71,1.76q.33.8.51,1.26l.5-1.26c.21-.52.44-1.11.69-1.76l.8-2.05c.28-.71.54-1.41.8-2.08l.72-1.88c.23-.57.41-1.05.55-1.43a.64.64,0,0,1,.23-.3.54.54,0,0,1,.37-.11h1.25c.33,0,.5.13.5.39a.31.31,0,0,1,0,.08.22.22,0,0,1,0,.1.53.53,0,0,0,0,.12l-5.36,13.21-.06.13a.42.42,0,0,1-.09.14.5.5,0,0,1-.16.11.72.72,0,0,1-.28,0h-.75a.72.72,0,0,1-.28,0,.5.5,0,0,1-.16-.11.42.42,0,0,1-.09-.14.54.54,0,0,0-.07-.13L94.88,14.12a.24.24,0,0,0,0-.08,1.4,1.4,0,0,1,0-.23c0-.26.17-.39.52-.39h1.18a.56.56,0,0,1,.37.11A.69.69,0,0,1,97.14,13.83Z"/><path class="cls-2" d="M108.57,20.6a7,7,0,0,1,.59-2.87,7.58,7.58,0,0,1,1.6-2.36,7.48,7.48,0,0,1,2.35-1.6,7.18,7.18,0,0,1,4.8-.32,6.93,6.93,0,0,1,1.77.75,8.41,8.41,0,0,1,1.5,1.17,7.58,7.58,0,0,1,1.92,3.27,7.48,7.48,0,0,1,0,3.91,7.33,7.33,0,0,1-.76,1.77,7.56,7.56,0,0,1-1.16,1.49,8.41,8.41,0,0,1-1.5,1.17,7.28,7.28,0,0,1-1.77.74,7.14,7.14,0,0,1-3.89,0,7.28,7.28,0,0,1-1.77-.74,8.41,8.41,0,0,1-1.5-1.17,8,8,0,0,1-1.16-1.49,7.72,7.72,0,0,1-.75-1.77A7.06,7.06,0,0,1,108.57,20.6Zm2.24,0a5.09,5.09,0,0,0,.4,2,5.52,5.52,0,0,0,1.11,1.68A5.24,5.24,0,0,0,114,25.45a4.75,4.75,0,0,0,2,.43,4.62,4.62,0,0,0,2-.43,5.19,5.19,0,0,0,1.62-1.15,5.29,5.29,0,0,0,1.09-1.68,5.1,5.1,0,0,0,.41-2,5.17,5.17,0,0,0-.41-2A5.43,5.43,0,0,0,118,15.69a4.63,4.63,0,0,0-2-.44,4.75,4.75,0,0,0-2,.44,5.49,5.49,0,0,0-1.63,1.18,5.67,5.67,0,0,0-1.11,1.71A5.16,5.16,0,0,0,110.81,20.6Z"/><path class="cls-2" d="M128.5,15.08a7.83,7.83,0,0,1,.68-.73,4.52,4.52,0,0,1,.81-.61,4.1,4.1,0,0,1,1-.4,5.19,5.19,0,0,1,1.31-.15,5.7,5.7,0,0,1,2.91.66,4.78,4.78,0,0,1,1.8,1.92,4,4,0,0,1,.82-1.2,4.32,4.32,0,0,1,1.13-.81,4.91,4.91,0,0,1,1.34-.44,7.77,7.77,0,0,1,1.46-.14,5.84,5.84,0,0,1,2.44.48A5,5,0,0,1,146,15a5.49,5.49,0,0,1,1.08,1.94,7.72,7.72,0,0,1,.37,2.39V27a.78.78,0,0,1-.2.58.68.68,0,0,1-.5.19h-.84a.64.64,0,0,1-.53-.17,1,1,0,0,1-.12-.56V19.3a5.15,5.15,0,0,0-.19-1.38,3.67,3.67,0,0,0-.6-1.28,3.39,3.39,0,0,0-1.13-.94,3.67,3.67,0,0,0-1.71-.36,4.09,4.09,0,0,0-1.53.27,3.2,3.2,0,0,0-1.15.79,3.4,3.4,0,0,0-.71,1.25,5.08,5.08,0,0,0-.25,1.66V27a.78.78,0,0,1-.2.58.68.68,0,0,1-.5.19h-.83a.65.65,0,0,1-.54-.17,1,1,0,0,1-.12-.56V19.31a5.57,5.57,0,0,0-.18-1.38,3.88,3.88,0,0,0-.61-1.28,3.21,3.21,0,0,0-1.12-.93,4,4,0,0,0-3-.13,3.57,3.57,0,0,0-1.18.68,3.49,3.49,0,0,0-.85,1.11,3.41,3.41,0,0,0-.33,1.53v8.32c0,.34-.16.5-.49.5h-1.16c-.36,0-.53-.16-.53-.5V13.91a.49.49,0,0,1,.14-.36.51.51,0,0,1,.35-.13H128a.52.52,0,0,1,.38.14.47.47,0,0,1,.14.35Z"/><path class="cls-2" d="M162.38,25.83a7.21,7.21,0,0,1-2.25,1.56,6.83,6.83,0,0,1-2.79.57,7,7,0,0,1-1.94-.27,7.47,7.47,0,0,1-1.76-.75,7.76,7.76,0,0,1-1.5-1.17A7.53,7.53,0,0,1,151,24.26a7.28,7.28,0,0,1-.75-5.68,7,7,0,0,1,.75-1.76,7.76,7.76,0,0,1,1.17-1.5,7.34,7.34,0,0,1,1.5-1.16,7.57,7.57,0,0,1,1.75-.75,7.06,7.06,0,0,1,2-.26,6.83,6.83,0,0,1,2.79.57,7,7,0,0,1,2.25,1.56V13.9a.44.44,0,0,1,.5-.49H164c.35,0,.53.16.53.49V27.23a.5.5,0,0,1-.5.5H162.9a.5.5,0,0,1-.38-.15.48.48,0,0,1-.14-.35Zm.11-5.29a5.13,5.13,0,0,0-.4-2,5.43,5.43,0,0,0-1.1-1.69,5.58,5.58,0,0,0-1.64-1.15,4.86,4.86,0,0,0-2-.43,4.77,4.77,0,0,0-2,.43,5.28,5.28,0,0,0-2.71,2.84,5.13,5.13,0,0,0-.4,2,5.2,5.2,0,0,0,.4,2,5.69,5.69,0,0,0,1.09,1.7,5.12,5.12,0,0,0,1.62,1.18,4.49,4.49,0,0,0,2,.44,4.56,4.56,0,0,0,2-.44A5.32,5.32,0,0,0,161,24.26a5.72,5.72,0,0,0,1.1-1.7A5.2,5.2,0,0,0,162.49,20.54Z"/><path class="cls-2" d="M171.43,27.89a4.17,4.17,0,0,1-1-.13,2.44,2.44,0,0,1-.94-.43,2.27,2.27,0,0,1-.68-.84,3.07,3.07,0,0,1-.27-1.37V15.34h-1.31a.76.76,0,0,1-.41-.08.42.42,0,0,1-.14-.38V13.83c0-.19.05-.31.14-.36a.87.87,0,0,1,.41-.08h1.31V11a.4.4,0,0,1,.08-.27.49.49,0,0,1,.27-.14,1,1,0,0,1,.28-.05l.43-.08.59-.1a.68.68,0,0,1,.3,0,.34.34,0,0,1,.17.14.65.65,0,0,1,.06.21c0,.08,0,.16,0,.25v2.42h1.57a.5.5,0,0,1,.37.12.53.53,0,0,1,.12.4v.89a.59.59,0,0,1-.12.42.5.5,0,0,1-.37.12h-1.57v9.75a.69.69,0,0,0,.19.56.84.84,0,0,0,.53.15.63.63,0,0,1,.43.16.59.59,0,0,1,.17.44v.92a.59.59,0,0,1-.16.42A.6.6,0,0,1,171.43,27.89Z"/><path class="cls-2" d="M177.29,10.81a.44.44,0,0,1-.49.5h-1.16c-.36,0-.53-.17-.53-.5V9.65a.49.49,0,0,1,.14-.36.51.51,0,0,1,.35-.13h1.17a.48.48,0,0,1,.38.14.45.45,0,0,1,.14.35Zm0,16.42c0,.34-.16.5-.49.5h-1.16c-.36,0-.53-.16-.53-.5V13.91a.49.49,0,0,1,.14-.36.51.51,0,0,1,.35-.13h1.17a.52.52,0,0,1,.38.14.47.47,0,0,1,.14.35Z"/><path class="cls-2" d="M190.82,24.47l.17-.14a1,1,0,0,1,.2-.11.41.41,0,0,1,.22,0,.6.6,0,0,1,.22.19l.37.49.23.31.13.18a1.62,1.62,0,0,1,.1.18.31.31,0,0,1,0,.19.57.57,0,0,1-.11.24,2.11,2.11,0,0,1-.3.29,11.26,11.26,0,0,1-1,.69,7.47,7.47,0,0,1-1.1.54,7.7,7.7,0,0,1-1.21.35,7.37,7.37,0,0,1-1.35.12,7.34,7.34,0,0,1-3.7-1,7.82,7.82,0,0,1-1.51-1.17A7.43,7.43,0,0,1,181,24.3a7.14,7.14,0,0,1,0-7.43,7.43,7.43,0,0,1,1.18-1.5,7.82,7.82,0,0,1,1.51-1.17,7.34,7.34,0,0,1,3.7-1,6.72,6.72,0,0,1,1.26.12,7.86,7.86,0,0,1,1.2.33,6.81,6.81,0,0,1,1.1.49,6.35,6.35,0,0,1,.92.6l.18.16a.81.81,0,0,1,.18.19.67.67,0,0,1,.1.23.49.49,0,0,1-.06.28l-.82,1.08c-.2.26-.42.25-.68,0a3.62,3.62,0,0,0-.7-.57,5.56,5.56,0,0,0-.84-.44,4.87,4.87,0,0,0-.94-.28,4.49,4.49,0,0,0-1-.11,4.55,4.55,0,0,0-1.91.43,5.56,5.56,0,0,0-1.64,1.16,5.8,5.8,0,0,0-1.13,1.7,5,5,0,0,0-.43,2,5,5,0,0,0,.42,2.05,5.75,5.75,0,0,0,1.13,1.69,5.49,5.49,0,0,0,1.64,1.14,4.67,4.67,0,0,0,1.94.42,4.87,4.87,0,0,0,1.12-.12,4.63,4.63,0,0,0,.91-.31,4.75,4.75,0,0,0,.76-.45Z"/><path class="cls-2" d="M193.84,20.6a7,7,0,0,1,.59-2.87,7.58,7.58,0,0,1,1.6-2.36,7.48,7.48,0,0,1,2.35-1.6,7.11,7.11,0,0,1,2.86-.59,7.41,7.41,0,0,1,3.71,1,7.76,7.76,0,0,1,1.5,1.17,7.58,7.58,0,0,1,1.92,3.27,7.21,7.21,0,0,1,0,3.91,7.33,7.33,0,0,1-.76,1.77,7.56,7.56,0,0,1-1.16,1.49A7.76,7.76,0,0,1,205,27a7.28,7.28,0,0,1-1.77.74,7,7,0,0,1-1.94.27,7.47,7.47,0,0,1-3.71-1,7.76,7.76,0,0,1-1.5-1.17,7.61,7.61,0,0,1-1.17-1.49,7.72,7.72,0,0,1-.75-1.77A7.06,7.06,0,0,1,193.84,20.6Zm2.24,0a5.1,5.1,0,0,0,.41,2,5.32,5.32,0,0,0,2.74,2.83,4.84,4.84,0,0,0,4,0,5.19,5.19,0,0,0,1.62-1.15,5.31,5.31,0,0,0,1.1-5.72,5.49,5.49,0,0,0-2.72-2.89,4.74,4.74,0,0,0-4,0,5.54,5.54,0,0,0-1.64,1.18,5.46,5.46,0,0,0-1.1,1.71A5.17,5.17,0,0,0,196.08,20.6Z"/></g></g></svg>